Coordinates
version=1
nRows=17
nColumns=40
inDegrees=yes

Units are S.I. units (second, meters, Newtons, ...)
Angles are in degrees.

endheader
time	pelvis_tilt	pelvis_list	pelvis_rotation	pelvis_tx	pelvis_ty	pelvis_tz	hip_flexion_r	hip_adduction_r	hip_rotation_r	knee_angle_r	knee_angle_r_beta	ankle_angle_r	subtalar_angle_r	mtp_angle_r	hip_flexion_l	hip_adduction_l	hip_rotation_l	knee_angle_l	knee_angle_l_beta	ankle_angle_l	subtalar_angle_l	mtp_angle_l	lumbar_extension	lumbar_bending	lumbar_rotation	arm_flex_r	arm_add_r	arm_rot_r	elbow_flex_r	pro_sup_r	wrist_flex_r	wrist_dev_r	arm_flex_l	arm_add_l	arm_rot_l	elbow_flex_l	pro_sup_l	wrist_flex_l	wrist_dev_l
     22.36500000	     -6.60179506	     -6.58625698	      2.58764421	      0.97518461	      0.92130504	      0.50524904	      3.20974954	      5.21016443	    -17.55917608	      9.67465082	      9.67465082	     14.97524992	      7.48461837	     -3.65923215	     31.69930721	     -9.00911059	     -3.28048923	     18.06699459	     18.06699459	      0.67625878	     -9.53166952	      5.73275250	    -10.12039758	      8.39239322	      3.05640948	     35.80032343	    -19.39049973	     -3.56914825	     92.90439927	     44.27188727	      0.00000000	      0.00000000	     -8.73545397	     -7.83020672	     -5.65246573	     28.43330942	     46.53736291	      0.00000000	      0.00000000
     22.37707143	     -6.49054097	     -6.51773162	      2.48908241	      0.97594579	      0.92056062	      0.50361589	      2.60826376	      5.02451073	    -17.33387181	      9.86077237	      9.86077237	     15.48870137	      7.44861084	     -3.77991774	     31.08560282	     -8.85874820	     -3.16053523	     18.77639878	     18.77639878	      0.74446636	     -9.92365755	      5.61457825	     -9.90239757	      8.26549315	      3.00630380	     35.13192149	    -19.12043883	     -3.42782997	     93.02655040	     44.26303826	      0.00000000	      0.00000000	     -9.15649018	     -7.87981707	     -5.67091691	     28.29503809	     46.53169939	      0.00000000	      0.00000000
     22.38914286	     -6.43079210	     -6.45507395	      2.43963853	      0.97646525	      0.91974044	      0.50183915	      2.32188132	      4.77176472	    -17.03351834	     10.52071953	     10.52071953	     16.08717964	      7.00969155	     -3.37452248	     30.82524784	     -8.57901105	     -2.40161534	     19.84322674	     19.84322674	      0.69846659	    -11.35914068	      5.39116444	     -9.81928699	      8.04298099	      2.68826848	     33.93233378	    -18.70208795	     -3.26791525	     94.90867683	     44.21484655	      0.00000000	      0.00000000	     -9.61213319	     -7.97379547	     -5.77494345	     28.64922727	     46.52712997	      0.00000000	      0.00000000
     22.40121429	     -6.25810627	     -6.28598222	      2.37818318	      0.97713515	      0.91946741	      0.49990769	      1.70234439	      4.44376404	    -16.81767482	     10.77573765	     10.77573765	     16.44432864	      6.89882183	     -3.35048079	     30.30953200	     -8.29537047	     -2.17996478	     20.61581919	     20.61581919	      1.00504014	    -11.85223391	      5.14983689	     -9.76824925	      7.75467875	      2.52945597	     32.85897818	    -18.47205635	     -3.12223107	     95.02285394	     44.20637784	      0.00000000	      0.00000000	     -9.81455729	     -8.04619682	     -5.80586280	     28.64986739	     46.52597536	      0.00000000	      0.00000000
     22.41328571	     -6.23279577	     -6.14721019	      2.35395426	      0.97761538	      0.91919174	      0.49781282	      1.44222044	      4.09181146	    -16.48251545	     11.42549151	     11.42549151	     17.26957299	      6.51478410	     -1.94077988	     30.02746171	     -7.92248420	     -1.54519044	     21.35022836	     21.35022836	      1.24416490	    -12.97036396	      4.93571313	     -9.68699359	      7.48450817	      2.98925475	     30.83101186	    -18.75701218	     -3.82403851	     97.18597281	     44.21057452	      0.00000000	      0.00000000	     -9.74085594	     -8.15333914	     -5.91121958	     29.30381944	     46.51067517	      0.00000000	      0.00000000
     22.42535714	     -6.19008000	     -5.97747317	      2.35730760	      0.97806296	      0.91919310	      0.49548561	      1.11760179	      3.68838313	    -16.29081265	     11.93682743	     11.93682743	     17.55437383	      6.27753236	     -1.81286205	     29.77329583	     -7.57175948	     -1.22067906	     22.09542947	     22.09542947	      1.78296170	    -13.50618267	      4.70483149	     -9.54322963	      7.22783146	      2.75939189	     29.58596144	    -18.46291288	     -3.74595569	     97.22763695	     44.21511922	      0.00000000	      0.00000000	     -9.73307396	     -8.18529646	     -5.88130460	     29.25305041	     46.49895842	      0.00000000	      0.00000000
     22.43742857	     -6.04310804	     -5.80650330	      2.38228612	      0.97853803	      0.91969194	      0.49296844	      0.61835581	      3.29050096	    -16.17451791	     12.30841727	     12.30841727	     17.62949943	      6.10591077	     -1.77436067	     29.34982783	     -7.23393450	     -1.02323317	     22.67469077	     22.67469077	      2.38688512	    -13.88759351	      4.44691503	     -9.54542107	      6.97843706	      2.45189662	     28.23220970	    -18.18838258	     -3.56164058	     97.00591704	     44.21435780	      0.00000000	      0.00000000	     -9.65360440	     -8.20444946	     -5.87926666	     29.27875706	     46.49781110	      0.00000000	      0.00000000
     22.44950000	     -6.12047450	     -5.60907086	      2.36514327	      0.97867935	      0.92007339	      0.49029897	      0.73556264	      2.73935987	    -15.95915722	     13.37639973	     13.37639973	     17.83851625	      5.62267409	     -1.61138360	     29.17245038	     -6.82253444	     -0.78065029	     23.20212279	     23.20212279	      3.04654560	    -14.46850252	      4.60313573	     -9.34665741	      6.69739192	      2.55872395	     26.46317882	    -18.25101827	     -3.75916719	     96.86678465	     44.23491142	      0.00000000	      0.00000000	     -9.32248348	     -8.24409805	     -5.89603659	     29.47174130	     46.49629796	      0.00000000	      0.00000000
     22.46157143	     -6.10534275	     -5.46097467	      2.35377662	      0.97887179	      0.92085922	      0.48750613	      0.73083563	      2.23321516	    -15.79722328	     14.38109464	     14.38109464	     17.88109665	      5.27551189	     -1.51426055	     28.81771876	     -6.48611048	     -0.63981778	     23.58482038	     23.58482038	      3.83970052	    -14.75674589	      4.87718728	     -9.26252811	      6.50115514	      2.66104163	     24.65882636	    -18.19475976	     -4.03954855	     96.52799048	     44.26725025	      0.00000000	      0.00000000	     -8.92319270	     -8.27174061	     -5.87397833	     29.62201025	     46.48820325	      0.00000000	      0.00000000
     22.47364286	     -6.10370832	     -5.32723058	      2.31833010	      0.97898231	      0.92183980	      0.48459565	      0.90177916	      1.68071315	    -15.64938346	     15.66211015	     15.66211015	     17.73384212	      4.86269130	     -1.70555217	     28.39434509	     -6.19046913	     -0.65950042	     23.80694147	     23.80694147	      4.53732454	    -14.88317161	      4.95048309	     -9.17888701	      6.34366920	      2.68449633	     22.90439089	    -18.11380059	     -4.08558152	     95.77902827	     44.29677091	      0.00000000	      0.00000000	     -8.51439223	     -8.23778500	     -5.85454587	     29.83912581	     46.48509396	      0.00000000	      0.00000000
     22.48571429	     -6.13530061	     -5.24711936	      2.23140782	      0.97892909	      0.92288673	      0.48168327	      1.40145446	      1.10377996	    -15.43423029	     17.45342787	     17.45342787	     17.44270376	      4.25301682	     -2.20699878	     27.93455025	     -5.96734439	     -0.73817741	     23.89483195	     23.89483195	      5.20854529	    -14.90112764	      5.08358764	     -9.09503724	      6.24123493	      2.81225120	     21.08544777	    -18.05643766	     -4.19676232	     94.70093943	     44.33898664	      0.00000000	      0.00000000	     -8.05365430	     -8.21087892	     -5.83828592	     30.16269262	     46.48272640	      0.00000000	      0.00000000
     22.49778571	     -5.91818822	     -5.47380166	      2.23468039	      0.97905174	      0.92448443	      0.47876423	      1.52541545	      0.89891743	    -15.38656827	     18.98843596	     18.98843596	     16.87588479	      3.85749634	     -2.48121538	     27.15437006	     -6.04518549	     -0.67144448	     23.84400728	     23.84400728	      5.79833784	    -14.88953314	      4.99502452	     -9.31194609	      6.56406332	      2.56625554	     19.38082364	    -17.70885045	     -3.98306720	     93.88803831	     44.35407657	      0.00000000	      0.00000000	     -7.70232025	     -8.09320076	     -5.81957877	     30.39284114	     46.48334349	      0.00000000	      0.00000000
     22.50985714	     -6.25275204	     -5.15653573	      1.89472953	      0.97836302	      0.92505655	      0.47607718	      3.35773338	     -0.17258309	    -14.72355932	     22.55321934	     22.55321934	     16.27179298	      2.36633546	     -3.91624650	     26.84237429	     -5.70205541	     -1.30415175	     23.66084832	     23.66084832	      6.34404356	    -14.59842732	      5.02686002	     -8.96880219	      6.10666523	      3.14432609	     17.54621961	    -17.91039205	     -4.21994322	     91.77254228	     44.43217926	      0.00000000	      0.00000000	     -7.05722547	     -8.15179439	     -5.84312290	     31.11578158	     46.48996459	      0.00000000	      0.00000000
     22.52192857	     -6.35090082	     -5.15716351	      1.62932385	      0.97781436	      0.92598063	      0.47358613	      4.88505574	     -0.80285465	    -14.10027806	     25.89931387	     25.89931387	     15.18959732	      0.79975690	     -5.42147002	     26.29150913	     -5.68477771	     -1.74610821	     23.46395801	     23.46395801	      6.90229482	    -14.28299574	      4.97947929	     -8.85744285	      6.05894195	      3.35924500	     15.88634873	    -17.69145973	     -4.35665827	     89.74877076	     44.50429840	      0.00000000	      0.00000000	     -6.59013342	     -8.15564388	     -5.81850811	     31.83880509	     46.48697003	      0.00000000	      0.00000000
     22.53400000	     -6.42497006	     -5.20067109	      1.36600281	      0.97706067	      0.92679797	      0.47128094	      6.44210504	     -1.24392813	    -13.16800704	     28.95180373	     28.95180373	     11.61134870	     -2.46094211	    -12.84291344	     25.76376716	     -5.75099070	     -2.29458625	     23.34190463	     23.34190463	      7.53602189	    -13.72898881	      4.97155897	     -8.82431187	      6.03292986	      2.92647382	     15.10984921	    -16.91348622	     -4.13084822	     86.02339328	     44.68884012	      0.00000000	      0.00000000	     -6.98665569	     -8.43948891	     -5.20938768	     34.19520363	     46.35489153	      0.00000000	      0.00000000
     22.54607143	     -6.50046279	     -5.22200949	      1.02614439	      0.97610653	      0.92744962	      0.46917126	      8.59553269	     -1.81226651	    -12.24886574	     33.23218781	     33.23218781	     10.10065554	     -4.71659432	    -13.70761508	     25.20423755	     -5.83851187	     -2.96151429	     23.14968779	     23.14968779	      7.94208979	    -13.21796008	      4.46064681	     -8.84183657	      5.99447389	      3.16787934	     13.60463046	    -16.69491578	     -4.09182520	     83.53875025	     44.77672909	      0.00000000	      0.00000000	     -6.38186501	     -8.54005799	     -5.16448968	     35.02754148	     46.35257795	      0.00000000	      0.00000000
     22.55814286	     -6.48350887	     -5.06125300	      0.67287219	      0.97499255	      0.92800409	      0.46712984	     10.91107668	     -2.64788479	    -11.49491360	     37.88042770	     37.88042770	      8.57692435	     -6.41312573	    -14.20396690	     24.49549546	     -5.72231413	     -3.63959074	     22.87879519	     22.87879519	      8.36229843	    -12.75938066	      4.08726832	     -9.02511679	      5.75559050	      3.24898450	     12.11258434	    -16.42942060	     -3.82752846	     81.75969843	     44.82405593	      0.00000000	      0.00000000	     -5.70555365	     -8.67287371	     -5.16911627	     35.70458550	     46.36227189	      0.00000000	      0.00000000
